<?xml version="1.0" encoding="UTF-8"?>
<svg version="1.1" viewBox="0 0 170.62 171.18" xmlns="http://www.w3.org/2000/svg">
 <g transform="translate(-3.2634 4.6557)">
  <path d="m100.26 30.777c-9.6424 0-17.671 6.8451-19.531 15.938-3.5826-5.3278-9.6596-8.8438-16.563-8.8438-11.02 0-19.969 8.9489-19.969 19.969 0 8.4528 5.2653 15.655 12.687 18.562-7e-3 0.2077-0.0286 0.4162-0.0312 0.625-10.179 0.9075-18.156 9.46-18.156 19.875 0 11.02 8.9176 19.938 19.937 19.938 6.6384 0 12.529-3.2319 16.156-8.2188-0.10598 0.833-0.1875 1.6695-0.1875 2.5313 0 11.02 8.9489 19.938 19.969 19.938 11.02 0 19.937-8.9177 19.937-19.938 0-3.5086-0.90983-6.7917-2.5-9.6563 2.0388 0.7027 4.2226 1.0938 6.5 1.0938 11.02 0 19.938-8.9177 19.938-19.938 0-11.02-8.9176-19.969-19.938-19.969-0.82914 0-1.6349 0.089-2.4375 0.1874 2.5958-3.368 4.1562-7.575 4.1562-12.156 0-11.02-8.9489-19.938-19.969-19.938zm-11.687 32.5c9.7604 0 17.687 7.8957 17.687 17.656 0 9.7604-7.927 17.687-17.687 17.687-9.7605 0-17.656-7.927-17.656-17.687 0-9.7606 7.8958-17.656 17.656-17.656z" fill="#eeb48a"/>
 </g>
</svg>
